{"title":"Sunset.Song.2015.BRRip.480p.x264.AAC-VYTO [P2PDL]","uid":14310217,"size":527034610,"categoryP":"video","categoryS":"movies","magnet":"?xt=urn:btih:ac2d97da4bbbbf171de082b2a9b36f6837ba7b5d&amp;dn=Sunset.Song.2015.BRRip.480p.x264.AAC-VYTO+%5BP2PDL%5D&amp;tr=udp%3A%2F%2Ftracker.leechers-paradise.org%3A6969&amp;tr=udp%3A%2F%2Fzer0day.ch%3A1337&amp;tr=udp%3A%2F%2Fopen.demonii.com%3A1337&amp;tr=udp%3A%2F%2Ftracker.coppersurfer.tk%3A6969&amp;tr=udp%3A%2F%2Fexodus.desync.com%3A6969","seeders":3,"leechers":3,"uploader":"VYTOP2PDL","files":7,"time":1460534201,"description":"____    ____ ____    ____ .___________.  ______   \r\n     /   /      /   / |           | /  __    \r\n    /   /      /   /  `---|  |----`|  |  |  | \r\n        /     _    _/       |  |     |  |  |  | \r\n       /        |  |         |  |     |  `--'  | \r\n    __/         |__|         |__|      ______/  \r\n                                                  \r\nPresenting Small Encodes with quality for years!\r\n                                                                                                   \r\n                                                                                                   \r\n\r\n\r\nSunset.Song.2015.BRRip.480p.x264.AAC-VYTO\r\n\r\n\r\nGenre: Drama  \nhttp://www.imdb.com/title/tt2262161/\r\n\r\n\r\nFormat                                   : MPEG-4\r\nFile size                                : 497 MiB\r\nDuration                                 : 2h 15mn\r\nOverall bit rate                         : 512 Kbps\r\n\r\nVideo\r\nFormat                                   : AVC\r\nBit rate                                 : 477 Kbps\r\nWidth                                    : 720 pixels\r\nHeight                                   : 304 pixels\r\nDisplay aspect ratio                     : 2.35:1\r\nFrame rate mode                          : Constant\r\nFrame rate                               : 23.976 fps\r\nBit depth                                : 8 bits\r\nStream size                              : 463 MiB (93%)\r\nWriting library                          : x264 \r\n\r\nAudio\r\nFormat                                   : AAC\r\nBit rate mode                            : Variable\r\nBit rate                                 : 31.9 Kbps\r\nChannel(s)                               : 2 channels \r\nChannel positions                        : Front: L R \r\nSampling rate                            : 48.0 KHz\r\nStream size                              : 31.0 MiB (6%)\r\nLanguage                                 : English\r\n\r\nSubtitle                                 : Yes (English)\r\n\r\nScreen Shots: (Click to view)\r\n \nhttps://ititli.com/X46 \nhttps://ititli.com/X48 \nhttps://ititli.com/X4e \nhttps://ititli.com/X4j \nhttps://ititli.com/X4k \nhttps://ititli.com/X4o \nhttps://ititli.com/X4G \nhttps://ititli.com/X4H \nhttps://ititli.com/X4M\r\n\r\n----------------------------------------------------------------------------------------------------\r\n\r\n\r\nEncoder Notes: Looking For Early Access To Anything You Can Provide WEBDL, DVDScr, DVDR, BluRay,\r\nDirect Audio, Music Releases and Seedboxes. If You Got anything to offer please contact us.\r\n\r\nSupport us by donating BC - 1FgwdzPsd1y25Gea8wP1qni35uGCtmkRCD\r\n\r\nFind us and join us @ P2PDL","torrent":{"xt":"urn:btih:ac2d97da4bbbbf171de082b2a9b36f6837ba7b5d","amp;dn":"Sunset.Song.2015.BRRip.480p.x264.AAC-VYTO+%5BP2PDL%5D","amp;tr":["udp%3A%2F%2Ftracker.leechers-paradise.org%3A6969","udp%3A%2F%2Fzer0day.ch%3A1337","udp%3A%2F%2Fopen.demonii.com%3A1337","udp%3A%2F%2Ftracker.coppersurfer.tk%3A6969","udp%3A%2F%2Fexodus.desync.com%3A6969"],"infoHash":"ac2d97da4bbbbf171de082b2a9b36f6837ba7b5d","infoHashBuffer":{"type":"Buffer","data":[172,45,151,218,75,187,191,23,29,224,130,178,169,179,111,104,55,186,123,93]},"announce":[],"urlList":[]}}